<?xml version='1.0' encoding='utf-8'?>
<svg xmlns="http://www.w3.org/2000/svg" viewBox="0 0 566 545">
  <path d="M 113 14 L 179 14 L 179 174 L 113 174 Z M 248 14 L 319 14 L 319 66 L 248 66 Z M 387 14 L 453 14 L 453 174 L 387 174 Z M 21 72 L 103 72 L 103 131 L 21 131 Z M 189 72 L 377 72 L 377 131 L 189 131 Z M 464 72 L 545 72 L 545 131 L 464 131 Z M 248 138 L 318 138 L 318 285 L 248 285 Z M 26 179 L 237 179 L 237 243 L 26 243 Z M 329 179 L 541 179 L 541 242 L 329 242 Z M 113 250 L 179 250 L 179 391 L 113 391 Z M 387 250 L 453 250 L 453 391 L 387 391 Z M 21 291 L 103 291 L 103 349 L 21 349 Z M 189 291 L 377 291 L 377 350 L 189 350 Z M 463 291 L 545 291 L 545 349 L 463 349 Z M 248 357 L 319 357 L 319 525 L 248 525 Z M 25 397 L 237 397 L 237 455 L 25 455 Z M 329 397 L 541 397 L 541 455 L 329 455 Z M 113 462 L 179 462 L 179 525 L 113 525 Z M 387 462 L 453 462 L 453 525 L 387 525 Z" fill="#C8A46A" shape-rendering="geometricPrecision" />
</svg>
